<mxfile host="65bd71144e" scale="6" border="0">
    <diagram id="vITa6DmqjQtGo82ku7d5" name="第 1 页">
        <mxGraphModel dx="906" dy="599" grid="1" gridSize="10" guides="1" tooltips="1" connect="1" arrows="1" fold="1" page="1" pageScale="1" pageWidth="827" pageHeight="1169" math="1" shadow="0">
            <root>
                <mxCell id="0"/>
                <mxCell id="1" parent="0"/>
                <mxCell id="79" value="机器人系统" style="rounded=0;whiteSpace=wrap;html=1;" parent="1" vertex="1">
                    <mxGeometry x="710" y="24" width="120" height="120" as="geometry"/>
                </mxCell>
                <mxCell id="2" value="PID" style="rounded=0;whiteSpace=wrap;html=1;" parent="1" vertex="1">
                    <mxGeometry x="260" y="24" width="80" height="40" as="geometry"/>
                </mxCell>
                <mxCell id="3" value="" style="endArrow=classic;html=1;" parent="1" edge="1">
                    <mxGeometry width="50" height="50" relative="1" as="geometry">
                        <mxPoint x="70" y="44" as="sourcePoint"/>
                        <mxPoint x="260" y="44" as="targetPoint"/>
                    </mxGeometry>
                </mxCell>
                <mxCell id="5" value="$$-\mathbf{K}(\hat{L_p})(\mathbf{\hat{x}}-\mathbf{x}_{ref})$$" style="rounded=0;whiteSpace=wrap;html=1;" parent="1" vertex="1">
                    <mxGeometry x="240" y="104" width="120" height="40" as="geometry"/>
                </mxCell>
                <mxCell id="11" value="+" style="ellipse;whiteSpace=wrap;html=1;" parent="1" vertex="1">
                    <mxGeometry x="160" y="114" width="20" height="20" as="geometry"/>
                </mxCell>
                <mxCell id="12" value="" style="endArrow=classic;html=1;entryX=0;entryY=0;entryDx=0;entryDy=0;" parent="1" target="11" edge="1">
                    <mxGeometry width="50" height="50" relative="1" as="geometry">
                        <mxPoint x="70" y="104" as="sourcePoint"/>
                        <mxPoint x="160" y="104" as="targetPoint"/>
                        <Array as="points">
                            <mxPoint x="140" y="104"/>
                        </Array>
                    </mxGeometry>
                </mxCell>
                <mxCell id="14" value="" style="endArrow=classic;html=1;entryX=0.175;entryY=0.942;entryDx=0;entryDy=0;entryPerimeter=0;exitX=1.02;exitY=0.331;exitDx=0;exitDy=0;exitPerimeter=0;" parent="1" source="77" target="11" edge="1">
                    <mxGeometry width="50" height="50" relative="1" as="geometry">
                        <mxPoint x="80" y="204" as="sourcePoint"/>
                        <mxPoint x="180" y="184" as="targetPoint"/>
                        <Array as="points">
                            <mxPoint x="140" y="144"/>
                        </Array>
                    </mxGeometry>
                </mxCell>
                <mxCell id="15" value="$$\mathbf{\hat{x}}$$" style="text;html=1;strokeColor=none;fillColor=none;align=center;verticalAlign=middle;whiteSpace=wrap;rounded=0;" parent="1" vertex="1">
                    <mxGeometry x="72" y="121" width="60" height="30" as="geometry"/>
                </mxCell>
                <mxCell id="22" value="" style="endArrow=classic;html=1;entryX=0.5;entryY=1;entryDx=0;entryDy=0;exitX=1;exitY=0.25;exitDx=0;exitDy=0;" parent="1" source="5" target="23" edge="1">
                    <mxGeometry width="50" height="50" relative="1" as="geometry">
                        <mxPoint x="400" y="114" as="sourcePoint"/>
                        <mxPoint x="450" y="74" as="targetPoint"/>
                        <Array as="points">
                            <mxPoint x="440" y="114"/>
                            <mxPoint x="480" y="114"/>
                        </Array>
                    </mxGeometry>
                </mxCell>
                <mxCell id="23" value="+" style="ellipse;whiteSpace=wrap;html=1;aspect=fixed;" parent="1" vertex="1">
                    <mxGeometry x="460" y="24" width="40" height="40" as="geometry"/>
                </mxCell>
                <mxCell id="24" value="" style="endArrow=classic;html=1;entryX=0;entryY=0.5;entryDx=0;entryDy=0;exitX=1;exitY=0.5;exitDx=0;exitDy=0;" parent="1" source="2" target="23" edge="1">
                    <mxGeometry width="50" height="50" relative="1" as="geometry">
                        <mxPoint x="400" y="44" as="sourcePoint"/>
                        <mxPoint x="450" y="-6" as="targetPoint"/>
                    </mxGeometry>
                </mxCell>
                <mxCell id="26" value="$$\{{T,T}\}$$" style="text;html=1;strokeColor=none;fillColor=none;align=center;verticalAlign=middle;whiteSpace=wrap;rounded=0;" parent="1" vertex="1">
                    <mxGeometry x="370" y="79" width="40" height="40" as="geometry"/>
                </mxCell>
                <mxCell id="27" value="" style="endArrow=classic;html=1;exitX=1;exitY=0.5;exitDx=0;exitDy=0;entryX=0;entryY=0.5;entryDx=0;entryDy=0;" parent="1" source="23" target="30" edge="1">
                    <mxGeometry width="50" height="50" relative="1" as="geometry">
                        <mxPoint x="500" y="44" as="sourcePoint"/>
                        <mxPoint x="560" y="44" as="targetPoint"/>
                    </mxGeometry>
                </mxCell>
                <mxCell id="30" value="轮电机" style="rounded=0;whiteSpace=wrap;html=1;" parent="1" vertex="1">
                    <mxGeometry x="710" y="24" width="90" height="40" as="geometry"/>
                </mxCell>
                <mxCell id="31" value="&lt;font style=&quot;font-size: 8px;&quot;&gt;航向角控制器&lt;/font&gt;" style="text;html=1;strokeColor=none;fillColor=none;align=center;verticalAlign=middle;whiteSpace=wrap;rounded=0;" parent="1" vertex="1">
                    <mxGeometry x="270" width="60" height="30" as="geometry"/>
                </mxCell>
                <mxCell id="32" value="&lt;span style=&quot;font-size: 8px;&quot;&gt;LQR控制器&lt;/span&gt;" style="text;html=1;strokeColor=none;fillColor=none;align=center;verticalAlign=middle;whiteSpace=wrap;rounded=0;" parent="1" vertex="1">
                    <mxGeometry x="270" y="79" width="60" height="30" as="geometry"/>
                </mxCell>
                <mxCell id="35" value="" style="endArrow=classic;html=1;fontSize=8;entryX=0;entryY=0.5;entryDx=0;entryDy=0;" parent="1" target="37" edge="1">
                    <mxGeometry width="50" height="50" relative="1" as="geometry">
                        <mxPoint x="70" y="244" as="sourcePoint"/>
                        <mxPoint x="160" y="243.82999999999998" as="targetPoint"/>
                    </mxGeometry>
                </mxCell>
                <mxCell id="37" value="+" style="ellipse;whiteSpace=wrap;html=1;aspect=fixed;fontSize=12;" parent="1" vertex="1">
                    <mxGeometry x="340" y="224" width="40" height="40" as="geometry"/>
                </mxCell>
                <mxCell id="43" value="&lt;span style=&quot;font-size: 12px;&quot;&gt;$$\gamma_{d}$$&lt;/span&gt;" style="text;html=1;strokeColor=none;fillColor=none;align=center;verticalAlign=middle;whiteSpace=wrap;rounded=0;fontSize=8;" parent="1" vertex="1">
                    <mxGeometry x="82" y="294" width="40" height="40" as="geometry"/>
                </mxCell>
                <mxCell id="45" value="PID" style="rounded=0;whiteSpace=wrap;html=1;fontSize=8;" parent="1" vertex="1">
                    <mxGeometry x="200" y="304" width="80" height="40" as="geometry"/>
                </mxCell>
                <mxCell id="47" value="&lt;span style=&quot;font-size: 8px;&quot;&gt;横滚角控制器&lt;/span&gt;" style="text;html=1;strokeColor=none;fillColor=none;align=center;verticalAlign=middle;whiteSpace=wrap;rounded=0;" parent="1" vertex="1">
                    <mxGeometry x="209" y="279" width="60" height="30" as="geometry"/>
                </mxCell>
                <mxCell id="49" value="+" style="ellipse;whiteSpace=wrap;html=1;aspect=fixed;fontSize=12;" parent="1" vertex="1">
                    <mxGeometry x="140" y="304" width="40" height="40" as="geometry"/>
                </mxCell>
                <mxCell id="50" value="" style="endArrow=classic;html=1;fontSize=8;entryX=0;entryY=0.5;entryDx=0;entryDy=0;" parent="1" target="49" edge="1">
                    <mxGeometry width="50" height="50" relative="1" as="geometry">
                        <mxPoint x="70" y="324" as="sourcePoint"/>
                        <mxPoint x="100" y="314" as="targetPoint"/>
                    </mxGeometry>
                </mxCell>
                <mxCell id="51" value="" style="endArrow=classic;html=1;fontSize=8;entryX=0;entryY=1;entryDx=0;entryDy=0;exitX=1;exitY=0.944;exitDx=0;exitDy=0;exitPerimeter=0;" parent="1" source="77" target="49" edge="1">
                    <mxGeometry width="50" height="50" relative="1" as="geometry">
                        <mxPoint x="80" y="364" as="sourcePoint"/>
                        <mxPoint x="130" y="314" as="targetPoint"/>
                        <Array as="points">
                            <mxPoint x="130" y="364"/>
                        </Array>
                    </mxGeometry>
                </mxCell>
                <mxCell id="52" value="&lt;span style=&quot;font-size: 12px;&quot;&gt;$$\hat{\gamma}$$&lt;/span&gt;" style="text;html=1;strokeColor=none;fillColor=none;align=center;verticalAlign=middle;whiteSpace=wrap;rounded=0;fontSize=8;" parent="1" vertex="1">
                    <mxGeometry x="82" y="334" width="40" height="40" as="geometry"/>
                </mxCell>
                <mxCell id="53" value="$$-$$" style="text;html=1;strokeColor=none;fillColor=none;align=center;verticalAlign=middle;whiteSpace=wrap;rounded=0;fontSize=8;" parent="1" vertex="1">
                    <mxGeometry x="110" y="324" width="40" height="40" as="geometry"/>
                </mxCell>
                <mxCell id="54" value="" style="endArrow=classic;html=1;fontSize=8;entryX=0;entryY=0.5;entryDx=0;entryDy=0;exitX=1;exitY=0.5;exitDx=0;exitDy=0;" parent="1" source="49" target="45" edge="1">
                    <mxGeometry width="50" height="50" relative="1" as="geometry">
                        <mxPoint x="180" y="344" as="sourcePoint"/>
                        <mxPoint x="230" y="294" as="targetPoint"/>
                    </mxGeometry>
                </mxCell>
                <mxCell id="58" value="$$\psi_d$$" style="text;html=1;strokeColor=none;fillColor=none;align=center;verticalAlign=middle;whiteSpace=wrap;rounded=0;" parent="1" vertex="1">
                    <mxGeometry x="72" y="14" width="60" height="30" as="geometry"/>
                </mxCell>
                <mxCell id="65" value="PD" style="rounded=0;whiteSpace=wrap;html=1;" parent="1" vertex="1">
                    <mxGeometry x="400" y="224" width="80" height="40" as="geometry"/>
                </mxCell>
                <mxCell id="66" value="" style="endArrow=classic;html=1;entryX=0;entryY=0.5;entryDx=0;entryDy=0;exitX=1;exitY=0.5;exitDx=0;exitDy=0;" parent="1" source="37" target="65" edge="1">
                    <mxGeometry width="50" height="50" relative="1" as="geometry">
                        <mxPoint x="390" y="244" as="sourcePoint"/>
                        <mxPoint x="440" y="194" as="targetPoint"/>
                    </mxGeometry>
                </mxCell>
                <mxCell id="67" value="关节电机" style="rounded=0;whiteSpace=wrap;html=1;" parent="1" vertex="1">
                    <mxGeometry x="710" y="104" width="90" height="40" as="geometry"/>
                </mxCell>
                <mxCell id="69" value="" style="endArrow=classic;html=1;entryX=0;entryY=0.75;entryDx=0;entryDy=0;exitX=0.343;exitY=1.027;exitDx=0;exitDy=0;exitPerimeter=0;" parent="1" target="70" edge="1">
                    <mxGeometry width="50" height="50" relative="1" as="geometry">
                        <mxPoint x="480.5799999999999" y="244.81000000000006" as="sourcePoint"/>
                        <mxPoint x="550" y="194" as="targetPoint"/>
                        <Array as="points">
                            <mxPoint x="540" y="244"/>
                            <mxPoint x="540" y="194"/>
                        </Array>
                    </mxGeometry>
                </mxCell>
                <mxCell id="70" value="VMC" style="rounded=0;whiteSpace=wrap;html=1;" parent="1" vertex="1">
                    <mxGeometry x="570" y="164" width="80" height="40" as="geometry"/>
                </mxCell>
                <mxCell id="75" value="" style="endArrow=classic;html=1;entryX=0;entryY=1;entryDx=0;entryDy=0;exitX=1.016;exitY=0.694;exitDx=0;exitDy=0;exitPerimeter=0;" parent="1" source="77" target="37" edge="1">
                    <mxGeometry width="50" height="50" relative="1" as="geometry">
                        <mxPoint x="70" y="274" as="sourcePoint"/>
                        <mxPoint x="230" y="254" as="targetPoint"/>
                        <Array as="points">
                            <mxPoint x="320" y="274"/>
                        </Array>
                    </mxGeometry>
                </mxCell>
                <mxCell id="76" value="&lt;span style=&quot;font-size: 8px;&quot;&gt;等效摆长控制器&lt;/span&gt;" style="text;html=1;strokeColor=none;fillColor=none;align=center;verticalAlign=middle;whiteSpace=wrap;rounded=0;" parent="1" vertex="1">
                    <mxGeometry x="410" y="199" width="60" height="30" as="geometry"/>
                </mxCell>
                <mxCell id="77" value="观测器" style="rounded=0;whiteSpace=wrap;html=1;" parent="1" vertex="1">
                    <mxGeometry y="24" width="40" height="360" as="geometry"/>
                </mxCell>
                <mxCell id="80" value="" style="endArrow=classic;html=1;exitX=0.84;exitY=1.025;exitDx=0;exitDy=0;exitPerimeter=0;" parent="1" source="79" edge="1">
                    <mxGeometry width="50" height="50" relative="1" as="geometry">
                        <mxPoint x="260" y="414" as="sourcePoint"/>
                        <mxPoint x="20" y="384" as="targetPoint"/>
                        <Array as="points">
                            <mxPoint x="810" y="424"/>
                            <mxPoint x="660" y="424"/>
                            <mxPoint x="20" y="424"/>
                        </Array>
                    </mxGeometry>
                </mxCell>
                <mxCell id="86" value="$$\hat{\psi}$$" style="text;html=1;strokeColor=none;fillColor=none;align=center;verticalAlign=middle;whiteSpace=wrap;rounded=0;" parent="1" vertex="1">
                    <mxGeometry x="72" y="51" width="60" height="30" as="geometry"/>
                </mxCell>
                <mxCell id="87" value="" style="endArrow=classic;html=1;exitX=1.04;exitY=0.154;exitDx=0;exitDy=0;exitPerimeter=0;entryX=0;entryY=0.75;entryDx=0;entryDy=0;" parent="1" source="77" target="2" edge="1">
                    <mxGeometry width="50" height="50" relative="1" as="geometry">
                        <mxPoint x="160" y="63.84" as="sourcePoint"/>
                        <mxPoint x="280" y="63.60000000000005" as="targetPoint"/>
                        <Array as="points">
                            <mxPoint x="190" y="79"/>
                            <mxPoint x="230" y="54"/>
                        </Array>
                    </mxGeometry>
                </mxCell>
                <mxCell id="94" value="" style="endArrow=classic;html=1;entryX=0;entryY=0.5;entryDx=0;entryDy=0;exitX=1;exitY=0.444;exitDx=0;exitDy=0;exitPerimeter=0;" parent="1" source="77" target="95" edge="1">
                    <mxGeometry width="50" height="50" relative="1" as="geometry">
                        <mxPoint x="40" y="214" as="sourcePoint"/>
                        <mxPoint x="240" y="214" as="targetPoint"/>
                        <Array as="points">
                            <mxPoint x="210" y="184"/>
                            <mxPoint x="240" y="184"/>
                        </Array>
                    </mxGeometry>
                </mxCell>
                <mxCell id="95" value="PID" style="rounded=0;whiteSpace=wrap;html=1;" parent="1" vertex="1">
                    <mxGeometry x="260" y="164" width="80" height="40" as="geometry"/>
                </mxCell>
                <mxCell id="98" value="$$\alpha_l-\alpha_r$$" style="text;html=1;strokeColor=none;fillColor=none;align=center;verticalAlign=middle;whiteSpace=wrap;rounded=0;" parent="1" vertex="1">
                    <mxGeometry x="80" y="159" width="60" height="30" as="geometry"/>
                </mxCell>
                <mxCell id="99" value="&lt;span style=&quot;font-size: 8px;&quot;&gt;分叉控制器&lt;/span&gt;" style="text;html=1;strokeColor=none;fillColor=none;align=center;verticalAlign=middle;whiteSpace=wrap;rounded=0;" parent="1" vertex="1">
                    <mxGeometry x="270" y="139" width="60" height="30" as="geometry"/>
                </mxCell>
                <mxCell id="100" value="+" style="ellipse;whiteSpace=wrap;html=1;aspect=fixed;" parent="1" vertex="1">
                    <mxGeometry x="460" y="124" width="40" height="40" as="geometry"/>
                </mxCell>
                <mxCell id="102" value="" style="endArrow=classic;html=1;" parent="1" target="100" edge="1">
                    <mxGeometry width="50" height="50" relative="1" as="geometry">
                        <mxPoint x="360" y="134" as="sourcePoint"/>
                        <mxPoint x="410" y="84" as="targetPoint"/>
                        <Array as="points">
                            <mxPoint x="430" y="134"/>
                            <mxPoint x="440" y="144"/>
                        </Array>
                    </mxGeometry>
                </mxCell>
                <mxCell id="103" value="" style="endArrow=classic;html=1;entryX=0.5;entryY=1;entryDx=0;entryDy=0;exitX=1;exitY=0.5;exitDx=0;exitDy=0;" parent="1" source="95" target="100" edge="1">
                    <mxGeometry width="50" height="50" relative="1" as="geometry">
                        <mxPoint x="360" y="184" as="sourcePoint"/>
                        <mxPoint x="410" y="134" as="targetPoint"/>
                        <Array as="points">
                            <mxPoint x="480" y="184"/>
                        </Array>
                    </mxGeometry>
                </mxCell>
                <mxCell id="104" value="" style="endArrow=classic;html=1;entryX=0;entryY=0.25;entryDx=0;entryDy=0;" parent="1" target="70" edge="1">
                    <mxGeometry width="50" height="50" relative="1" as="geometry">
                        <mxPoint x="500" y="144" as="sourcePoint"/>
                        <mxPoint x="550" y="94" as="targetPoint"/>
                        <Array as="points">
                            <mxPoint x="540" y="144"/>
                            <mxPoint x="540" y="174"/>
                        </Array>
                    </mxGeometry>
                </mxCell>
                <mxCell id="105" value="$$\mathbf{x}_{d}$$" style="text;html=1;strokeColor=none;fillColor=none;align=center;verticalAlign=middle;whiteSpace=wrap;rounded=0;" parent="1" vertex="1">
                    <mxGeometry x="72" y="81.00000000000003" width="60" height="30" as="geometry"/>
                </mxCell>
                <mxCell id="106" value="" style="endArrow=classic;html=1;fontSize=8;entryX=0;entryY=0.75;entryDx=0;entryDy=0;exitX=0;exitY=1;exitDx=0;exitDy=0;" parent="1" target="5" edge="1">
                    <mxGeometry width="50" height="50" relative="1" as="geometry">
                        <mxPoint x="80" y="274" as="sourcePoint"/>
                        <mxPoint x="320" y="228.88" as="targetPoint"/>
                        <Array as="points">
                            <mxPoint x="190" y="274"/>
                            <mxPoint x="190" y="260"/>
                            <mxPoint x="185" y="243"/>
                            <mxPoint x="190" y="230"/>
                            <mxPoint x="190" y="200"/>
                            <mxPoint x="184" y="184"/>
                            <mxPoint x="190" y="170"/>
                            <mxPoint x="190" y="134"/>
                        </Array>
                    </mxGeometry>
                </mxCell>
                <mxCell id="107" value="" style="endArrow=classic;html=1;entryX=0;entryY=0.5;entryDx=0;entryDy=0;" parent="1" target="5" edge="1">
                    <mxGeometry width="50" height="50" relative="1" as="geometry">
                        <mxPoint x="180" y="124" as="sourcePoint"/>
                        <mxPoint x="230" y="74" as="targetPoint"/>
                    </mxGeometry>
                </mxCell>
                <mxCell id="109" value="$$-$$" style="text;html=1;strokeColor=none;fillColor=none;align=center;verticalAlign=middle;whiteSpace=wrap;rounded=0;fontSize=8;" parent="1" vertex="1">
                    <mxGeometry x="300" y="209" width="40" height="40" as="geometry"/>
                </mxCell>
                <mxCell id="110" value="$$\{{L_{p_{d_l}} ,L_{p_{d_r}}&lt;br&gt;}\}$$" style="text;html=1;strokeColor=none;fillColor=none;align=center;verticalAlign=middle;whiteSpace=wrap;rounded=0;" parent="1" vertex="1">
                    <mxGeometry x="90" y="214" width="60" height="30" as="geometry"/>
                </mxCell>
                <mxCell id="112" value="$$\{ {\hat{L_{p_l}} ,\hat{L_{p_r}}&lt;br&gt;} \}$$" style="text;html=1;strokeColor=none;fillColor=none;align=center;verticalAlign=middle;whiteSpace=wrap;rounded=0;" parent="1" vertex="1">
                    <mxGeometry x="90" y="244" width="60" height="30" as="geometry"/>
                </mxCell>
                <mxCell id="113" value="$$\{{T_{p},T_{p}}&lt;br&gt;\}$$" style="text;html=1;strokeColor=none;fillColor=none;align=center;verticalAlign=middle;whiteSpace=wrap;rounded=0;" parent="1" vertex="1">
                    <mxGeometry x="370" y="109" width="60" height="30" as="geometry"/>
                </mxCell>
                <mxCell id="115" value="$$\{-{T_{\alpha},T_{\alpha}}&lt;br&gt;\}$$" style="text;html=1;strokeColor=none;fillColor=none;align=center;verticalAlign=middle;whiteSpace=wrap;rounded=0;" parent="1" vertex="1">
                    <mxGeometry x="374" y="159" width="60" height="30" as="geometry"/>
                </mxCell>
                <mxCell id="116" value="$$-$$" style="text;html=1;strokeColor=none;fillColor=none;align=center;verticalAlign=middle;whiteSpace=wrap;rounded=0;fontSize=8;" parent="1" vertex="1">
                    <mxGeometry x="132" y="81" width="40" height="40" as="geometry"/>
                </mxCell>
                <mxCell id="119" value="$$\{{-L_{\gamma} ,L_{\gamma}&lt;br&gt;}\}$$" style="text;html=1;strokeColor=none;fillColor=none;align=center;verticalAlign=middle;whiteSpace=wrap;rounded=0;" parent="1" vertex="1">
                    <mxGeometry x="290" y="304" width="60" height="30" as="geometry"/>
                </mxCell>
                <mxCell id="120" value="" style="endArrow=classic;html=1;exitX=1;exitY=0.75;exitDx=0;exitDy=0;entryX=0.5;entryY=1;entryDx=0;entryDy=0;" parent="1" source="45" target="37" edge="1">
                    <mxGeometry width="50" height="50" relative="1" as="geometry">
                        <mxPoint x="350" y="294" as="sourcePoint"/>
                        <mxPoint x="400" y="244" as="targetPoint"/>
                        <Array as="points">
                            <mxPoint x="360" y="334"/>
                        </Array>
                    </mxGeometry>
                </mxCell>
                <mxCell id="121" value="$$\{{F_{l} ,F_{r}&lt;br&gt;}\}$$" style="text;html=1;strokeColor=none;fillColor=none;align=center;verticalAlign=middle;whiteSpace=wrap;rounded=0;" parent="1" vertex="1">
                    <mxGeometry x="480" y="219" width="60" height="30" as="geometry"/>
                </mxCell>
                <mxCell id="122" value="$$\{{T_{{wheel}_l},T_{{wheel}_r}&lt;br&gt;}\}$$" style="text;html=1;strokeColor=none;fillColor=none;align=center;verticalAlign=middle;whiteSpace=wrap;rounded=0;" parent="1" vertex="1">
                    <mxGeometry x="580" y="9" width="40" height="40" as="geometry"/>
                </mxCell>
                <mxCell id="125" value="$$\{{\mathbf{T}_{{joint}_{l_{1,2}}},\mathbf{T}_{{joint}_{r_{1,2}}}&lt;br&gt;}\}$$" style="text;html=1;strokeColor=none;fillColor=none;align=center;verticalAlign=middle;whiteSpace=wrap;rounded=0;" parent="1" vertex="1">
                    <mxGeometry x="690" y="154" width="40" height="40" as="geometry"/>
                </mxCell>
                <mxCell id="127" value="" style="endArrow=classic;html=1;exitX=1;exitY=0.5;exitDx=0;exitDy=0;entryX=0.75;entryY=1;entryDx=0;entryDy=0;" parent="1" source="70" target="67" edge="1">
                    <mxGeometry width="50" height="50" relative="1" as="geometry">
                        <mxPoint x="680" y="174" as="sourcePoint"/>
                        <mxPoint x="730" y="124" as="targetPoint"/>
                        <Array as="points">
                            <mxPoint x="778" y="184"/>
                        </Array>
                    </mxGeometry>
                </mxCell>
                <mxCell id="129" value="&lt;span style=&quot;font-size: 8px;&quot;&gt;虚拟模型控制映射&lt;/span&gt;" style="text;html=1;strokeColor=none;fillColor=none;align=center;verticalAlign=middle;whiteSpace=wrap;rounded=0;" parent="1" vertex="1">
                    <mxGeometry x="575" y="139" width="70" height="30" as="geometry"/>
                </mxCell>
            </root>
        </mxGraphModel>
    </diagram>
</mxfile>